<?xml version="1.0" encoding="UTF-8"?>
<svg version="1.1" xmlns="http://www.w3.org/2000/svg" xmlns:xlink="http://www.w3.org/1999/xlink" viewBox="0 0 120 120" width="120px" height="120px">
    <!-- Generator: Sketch 48.1 (47250) - http://www.bohemiancoding.com/sketch -->
    <title>React</title>
    <desc>Created with Sketch.</desc>
    <defs/>
    <g id="MVP" stroke="none" stroke-width="1" fill="none" fill-rule="evenodd" transform="translate(-915.000000, -222.000000)">
        <g id="Group-11-Copy-2" transform="translate(915.000000, 222.000000)">
            <g id="Group-8">
                <g id="Rectangle-5-Copy">
                    <g id="Group-2">
                        <rect id="Rectangle-5-Copy" fill="#2AC7E3" x="0" y="0" width="120" height="120"/>
                        <g id="react-1" transform="translate(32.000000, 34.000000)">
                            <ellipse id="Oval" fill="#FFFFFF" fill-rule="nonzero" cx="28.5826217" cy="24.9585521" rx="5.20484632" ry="5.22589113"/>
                            <path d="M28.5826217,14.3340702 C35.5694312,14.3340702 42.0608688,15.3409091 46.9543875,17.0316386 C52.8506906,19.0694943 56.4765386,22.1590909 56.4765386,24.9568251 C56.4765386,27.871995 52.6339654,31.1550152 46.3024917,33.2602238 C41.5156155,34.8525145 35.2151026,35.6849268 28.5826217,35.6849268 C21.7815766,35.6849268 15.3434604,34.9043244 10.5015429,33.2429539 C4.37647421,31.1411992 0.686984672,27.8167311 0.686984672,24.9568251 C0.686984672,22.1815419 4.1494287,19.1161232 9.96316979,17.0817215 C14.875609,15.36336 21.5270104,14.3340702 28.5826217,14.3340702 Z" id="Shape" stroke="#FFFFFF" stroke-width="2.49975131"/>
                            <path d="M19.3717981,19.6773971 C22.8617628,13.6000967 26.9743826,8.45710141 30.8788774,5.0462835 C35.5831916,0.936032053 40.0604602,-0.673528599 42.4736788,0.723611495 C44.9883798,2.17946947 45.901722,7.1618541 44.5549293,13.7227135 C43.5366646,18.6826471 41.1079656,24.5768859 37.7934452,30.3467809 C34.3963628,36.2617436 30.5056283,41.4720917 26.6544549,44.8535507 C21.7815766,49.1313208 17.0686622,50.6787096 14.6021224,49.2504836 C12.2078243,47.8637054 11.2927621,43.3217049 12.4400299,37.2478585 C13.4101334,32.1117712 15.8457126,25.8134153 19.3717981,19.6773971 Z" id="Shape" stroke="#FFFFFF" stroke-width="2.49975131"/>
                            <path d="M19.3803983,30.3588699 C15.8801134,24.2867505 13.4961355,18.1420973 12.5019514,13.0422769 C11.3048024,6.89762365 12.1510629,2.19846643 14.5625614,0.79787234 C17.0755424,-0.663166621 21.8297378,1.03101686 26.8178588,5.47803261 C30.5899104,8.84049461 34.4617243,13.8971401 37.784845,19.6618541 C41.1922477,25.5716358 43.7465097,31.5574054 44.7389738,36.5950539 C45.9963243,42.9711246 44.9780596,47.8429815 42.5132397,49.2746615 C40.1206617,50.6648936 35.7448755,49.1934927 31.0766822,45.1609561 C27.1343465,41.7535922 22.9150841,36.4897071 19.3803983,30.3588699 Z" id="Shape" stroke="#FFFFFF" stroke-width="2.49975131"/>
                        </g>
                    </g>
                </g>
            </g>
        </g>
    </g>
</svg>