<?xml version="1.0" encoding="UTF-8"?>
<svg width="28px" height="20px" viewBox="0 0 28 20" version="1.1" xmlns="http://www.w3.org/2000/svg" xmlns:xlink="http://www.w3.org/1999/xlink" style="vertical-align: middle;">
    <!-- Generator: Sketch 50.2 (55047) - http://www.bohemiancoding.com/sketch -->
    <title>surface1</title>
    <desc>Created with Sketch.</desc>
    <defs></defs>
    <g id="Comunidade" stroke="none" stroke-width="1" fill="#9b95ab" fill-rule="evenodd">
        <g transform="translate(-516.000000, -156.000000)" fill="#9b95ab" fill-rule="nonzero" id="Group-29">
            <g transform="translate(496.000000, 140.000000)">
                <g id="Group-27">
                    <path d="M44.1818182,18.5 C44.1818182,18.5 41.2634545,16.25625 37.8181818,16 L37.5076364,16.610625 C40.622,17.36 42.0512727,18.43125 43.5454545,19.75 C40.9700909,18.45875 38.4290909,17.25 34,17.25 C29.5709091,17.25 27.0299091,18.45875 24.4545455,19.75 C25.9487273,18.43125 27.6490909,17.24 30.4923636,16.610625 L30.1818182,16 C26.5672727,16.334375 23.8181818,18.5 23.8181818,18.5 C23.8181818,18.5 20.5593636,23.14125 20,32.25 C23.2836364,35.970625 28.2727273,36 28.2727273,36 L29.3163636,34.635 C27.5447273,34.03 25.5465455,32.950625 23.8181818,31 C25.8787273,32.53125 28.9886364,34.125 34,34.125 C39.0113636,34.125 42.1212727,32.53125 44.1818182,31 C42.4540909,32.950625 40.4559091,34.03 38.6836364,34.635 L39.7272727,36 C39.7272727,36 44.7163636,35.970625 48,32.25 C47.4406364,23.14125 44.1818182,18.5 44.1818182,18.5 Z M29.8636364,29.75 C28.6329091,29.75 27.6363636,28.63125 27.6363636,27.25 C27.6363636,25.86875 28.6329091,24.75 29.8636364,24.75 C31.0943636,24.75 32.0909091,25.86875 32.0909091,27.25 C32.0909091,28.63125 31.0943636,29.75 29.8636364,29.75 Z M38.1363636,29.75 C36.9056364,29.75 35.9090909,28.63125 35.9090909,27.25 C35.9090909,25.86875 36.9056364,24.75 38.1363636,24.75 C39.3670909,24.75 40.3636364,25.86875 40.3636364,27.25 C40.3636364,28.63125 39.3670909,29.75 38.1363636,29.75 Z" id="surface1"></path>
                </g>
            </g>
        </g>
    </g>
</svg>
