<?xml version="1.0" encoding="UTF-8"?>
<svg width="27px" height="32px" viewBox="0 0 27 32" version="1.1" xmlns="http://www.w3.org/2000/svg" xmlns:xlink="http://www.w3.org/1999/xlink">
    <!-- Generator: Sketch 50.2 (55047) - http://www.bohemiancoding.com/sketch -->
    <title>Group 10</title>
    <desc>Created with Sketch.</desc>
    <defs></defs>
    <g id="Skylab" stroke="none" stroke-width="1" fill="none" fill-rule="evenodd">
        <g transform="translate(-30.000000, -20.000000)" fill="#FFFFFF" id="Sidebar">
            <g transform="translate(-1.000000, 0.000000)">
                <g id="Group-10" transform="translate(31.000000, 20.000000)">
                    <path d="M12.6239411,20.8780138 C11.8293875,20.3874522 8.47665603,18.3257379 8.47665603,18.3257379 C8.47665603,18.3257379 5.12548829,16.2607133 4.32984007,15.772201 C4.25384065,15.7255409 4.15673029,15.7781911 4.1525081,15.8677281 C4.14375096,16.0548414 4.13077164,16.3286542 4.12373465,16.4815606 C4.12045073,16.5558069 4.13921602,16.6284768 4.17846674,16.6913734 C4.35376581,16.9725951 4.87028037,17.8009695 5.13049237,18.2188611 C5.228541,18.3764966 5.25778358,18.5677084 5.21133949,18.7477281 L4.53876028,21.3558069 C4.51186337,21.4604768 4.54861206,21.570664 4.6327431,21.6379744 C4.9794318,21.9152552 5.40790588,22.2202798 5.92457682,22.5382305 C6.440935,22.8563389 6.9060014,23.1013044 7.30898596,23.2854227 C7.40672184,23.3300335 7.52087734,23.3126936 7.6007862,23.2408118 L9.59537997,21.4466049 C9.73314846,21.3227034 9.91517175,21.2615409 10.0990716,21.2776197 C10.5864999,21.3200236 11.5529123,21.4046739 11.8814612,21.4335212 C11.955115,21.4399842 12.0282996,21.4235901 12.0922579,21.3865458 C12.2240841,21.3104079 12.4597448,21.1738956 12.6206572,21.080733 C12.6977513,21.0361222 12.6997842,20.9248315 12.6239411,20.8780138" id="Fill-22"></path>
                    <path d="M6.99466738,24.2077163 C6.96026436,23.9969576 6.82718719,23.8155192 6.6375014,23.7203074 C6.10613098,23.4532729 5.68359924,23.1979034 5.56803634,23.1268099 C5.45247344,23.0557163 5.03400751,22.7934108 4.55564904,22.438731 C4.38504129,22.3121498 4.16408002,22.275736 3.96235317,22.3411547 L3.84694665,22.3785143 C3.04551246,22.6386128 2.4279781,23.2874404 2.20404566,24.1055685 C1.65516098,26.1108493 0.621819103,29.886534 0.15722184,31.5839527 C0.0888849156,31.833332 0.386940245,32.0166621 0.575687769,31.8416867 C1.86157915,30.6498049 4.72172184,27.998534 6.24061555,26.5903764 C6.8603392,26.0159527 7.15088841,25.1658246 7.01421456,24.328465 L6.99466738,24.2077163 Z" id="Fill-24"></path>
                    <path d="M26.4971031,1.43616946 C26.7399572,1.1119133 26.5943699,0.866317241 26.4858439,0.765745813 C26.4858439,0.765745813 26.4856876,0.765588177 26.4855312,0.765430542 C26.3710629,0.674947783 26.231887,0.610474877 26.0717566,0.586041379 L22.5526395,0.048346798 C22.2261235,-0.00146600985 21.8992947,0.135046305 21.7033538,0.402868966 L19.7830393,3.0270266 C19.4876424,3.4305734 19.5888186,3.96243547 19.9328489,4.24838621 C19.9578693,4.26950936 19.9647499,4.30639606 19.947392,4.33524335 C19.9328489,4.35904631 19.9051701,4.37055369 19.8793678,4.36661281 L18.9109226,4.2185931 L17.5768669,4.01477044 C17.205627,3.95817931 16.8339179,4.11313498 16.6110801,4.41784433 L10.9979132,12.0888591 C10.924885,12.1886424 10.7885239,12.2159133 10.6832819,12.1519133 L5.27981715,8.86221872 C4.92249479,8.64468177 4.45617737,8.76574581 4.24835181,9.133667 C4.04584307,9.49213005 4.18971028,9.9510069 4.53983928,10.1642877 L4.6794843,10.2492532 C4.74860312,10.2911842 4.78582094,10.3709478 4.77377988,10.4514995 L4.60973998,11.5476966 C4.59410224,11.652997 4.47728832,11.7081695 4.38705856,11.6531547 C4.38705856,11.6531547 3.61627434,11.1912828 3.59657079,11.1791448 C2.95745635,10.7847409 2.12208826,10.9873025 1.730832,11.6315586 C1.38242315,12.2053517 1.5045539,12.9350463 1.98650906,13.3666522 C2.00136491,13.3802089 2.14116631,13.4886621 2.17728949,13.5108887 C2.17807137,13.5113616 2.17885326,13.5119921 2.17963515,13.5123074 C2.17979153,13.512465 2.1799479,13.5126227 2.1799479,13.5126227 L6.21651779,16.003736 C8.39845169,17.33213 10.0569904,16.242869 10.574756,15.8522483 C11.0343492,15.5054502 11.5564933,15.1225537 12.4275155,15.6556768 C12.7396448,15.8468887 13.1337158,15.8397951 13.4480344,15.6520512 L14.4529156,15.051933 C14.7494071,14.8749084 15.1186142,14.8764847 15.4138547,15.0560315 L18.4746296,16.919598 C18.5948838,16.9927409 18.7506357,16.9616867 18.8341413,16.8477163 L26.3153926,6.63955862 C26.9255772,5.81922365 26.4739593,5.42024828 26.1022502,5.32219901 C26.0783244,5.31668177 26.0550242,5.30990345 26.0303166,5.3061202 L24.2360423,5.03214975 C24.2096145,5.0278936 24.1830303,5.01654384 24.1586354,5.00156847 C24.0591794,4.94040591 24.0279039,4.80893793 24.0887347,4.70852414 C24.6968865,3.88046502 26.4971031,1.43616946 26.4971031,1.43616946" id="Fill-26"></path>
                </g>
            </g>
        </g>
    </g>
</svg>